<mxfile host="app.diagrams.net" agent="Mozilla/5.0 (Windows NT 10.0; Win64; x64) AppleWebKit/537.36 (KHTML, like Gecko) Chrome/140.0.0.0 Safari/537.36" version="28.2.5">
  <diagram name="Page-1" id="3-DanIEIC1cBjHzobbnv">
    <mxGraphModel grid="0" page="0" gridSize="10" guides="1" tooltips="1" connect="1" arrows="1" fold="1" pageScale="1" pageWidth="850" pageHeight="1100" math="0" shadow="0">
      <root>
        <mxCell id="0" />
        <mxCell id="1" parent="0" />
        <mxCell id="XudQNCLkwwrWhG9qk1SB-25" style="edgeStyle=orthogonalEdgeStyle;rounded=0;orthogonalLoop=1;jettySize=auto;html=1;exitX=0.5;exitY=1;exitDx=0;exitDy=0;entryX=0.5;entryY=0;entryDx=0;entryDy=0;" edge="1" parent="1" source="XudQNCLkwwrWhG9qk1SB-1" target="XudQNCLkwwrWhG9qk1SB-4">
          <mxGeometry relative="1" as="geometry" />
        </mxCell>
        <mxCell id="XudQNCLkwwrWhG9qk1SB-1" value="Customer" style="ellipse;whiteSpace=wrap;html=1;" vertex="1" parent="1">
          <mxGeometry x="-109" y="10" width="120" height="80" as="geometry" />
        </mxCell>
        <mxCell id="XudQNCLkwwrWhG9qk1SB-10" style="edgeStyle=orthogonalEdgeStyle;rounded=0;orthogonalLoop=1;jettySize=auto;html=1;exitX=0;exitY=0.75;exitDx=0;exitDy=0;entryX=0.5;entryY=0;entryDx=0;entryDy=0;" edge="1" parent="1" source="XudQNCLkwwrWhG9qk1SB-11" target="XudQNCLkwwrWhG9qk1SB-5">
          <mxGeometry relative="1" as="geometry">
            <Array as="points">
              <mxPoint x="-144" y="181" />
              <mxPoint x="-332" y="181" />
            </Array>
          </mxGeometry>
        </mxCell>
        <mxCell id="XudQNCLkwwrWhG9qk1SB-15" style="edgeStyle=orthogonalEdgeStyle;rounded=0;orthogonalLoop=1;jettySize=auto;html=1;exitX=1;exitY=0.25;exitDx=0;exitDy=0;entryX=0.5;entryY=1;entryDx=0;entryDy=0;" edge="1" parent="1" source="XudQNCLkwwrWhG9qk1SB-4" target="XudQNCLkwwrWhG9qk1SB-6">
          <mxGeometry relative="1" as="geometry" />
        </mxCell>
        <mxCell id="XudQNCLkwwrWhG9qk1SB-22" style="edgeStyle=orthogonalEdgeStyle;rounded=0;orthogonalLoop=1;jettySize=auto;html=1;entryX=1;entryY=1;entryDx=0;entryDy=-15;entryPerimeter=0;exitX=0.25;exitY=1;exitDx=0;exitDy=0;" edge="1" parent="1" source="XudQNCLkwwrWhG9qk1SB-4" target="XudQNCLkwwrWhG9qk1SB-23">
          <mxGeometry relative="1" as="geometry">
            <mxPoint x="-49" y="409.8182067871094" as="targetPoint" />
          </mxGeometry>
        </mxCell>
        <mxCell id="XudQNCLkwwrWhG9qk1SB-28" style="edgeStyle=orthogonalEdgeStyle;rounded=0;orthogonalLoop=1;jettySize=auto;html=1;entryX=0;entryY=0.5;entryDx=0;entryDy=0;" edge="1" parent="1" source="XudQNCLkwwrWhG9qk1SB-4" target="XudQNCLkwwrWhG9qk1SB-27">
          <mxGeometry relative="1" as="geometry" />
        </mxCell>
        <mxCell id="XudQNCLkwwrWhG9qk1SB-36" style="edgeStyle=orthogonalEdgeStyle;rounded=0;orthogonalLoop=1;jettySize=auto;html=1;exitX=0;exitY=1;exitDx=0;exitDy=0;" edge="1" parent="1" source="XudQNCLkwwrWhG9qk1SB-4" target="XudQNCLkwwrWhG9qk1SB-23">
          <mxGeometry relative="1" as="geometry">
            <Array as="points">
              <mxPoint x="-131" y="232" />
              <mxPoint x="-131" y="293" />
              <mxPoint x="-267" y="293" />
            </Array>
          </mxGeometry>
        </mxCell>
        <mxCell id="XudQNCLkwwrWhG9qk1SB-38" style="edgeStyle=orthogonalEdgeStyle;rounded=0;orthogonalLoop=1;jettySize=auto;html=1;exitX=0.25;exitY=0;exitDx=0;exitDy=0;entryX=0;entryY=0.5;entryDx=0;entryDy=0;" edge="1" parent="1" source="XudQNCLkwwrWhG9qk1SB-4" target="XudQNCLkwwrWhG9qk1SB-1">
          <mxGeometry relative="1" as="geometry">
            <Array as="points">
              <mxPoint x="-129" y="164" />
              <mxPoint x="-129" y="50" />
            </Array>
          </mxGeometry>
        </mxCell>
        <mxCell id="XudQNCLkwwrWhG9qk1SB-4" value="Order Service" style="rounded=0;whiteSpace=wrap;html=1;" vertex="1" parent="1">
          <mxGeometry x="-144" y="164" width="190" height="68" as="geometry" />
        </mxCell>
        <mxCell id="XudQNCLkwwrWhG9qk1SB-19" style="edgeStyle=orthogonalEdgeStyle;rounded=0;orthogonalLoop=1;jettySize=auto;html=1;exitX=1;exitY=0;exitDx=0;exitDy=0;entryX=0;entryY=0.75;entryDx=0;entryDy=0;curved=1;" edge="1" parent="1" source="XudQNCLkwwrWhG9qk1SB-5" target="XudQNCLkwwrWhG9qk1SB-4">
          <mxGeometry relative="1" as="geometry" />
        </mxCell>
        <mxCell id="XudQNCLkwwrWhG9qk1SB-5" value="Restaurant" style="ellipse;whiteSpace=wrap;html=1;" vertex="1" parent="1">
          <mxGeometry x="-406" y="223" width="120" height="80" as="geometry" />
        </mxCell>
        <mxCell id="XudQNCLkwwrWhG9qk1SB-32" style="edgeStyle=orthogonalEdgeStyle;rounded=0;orthogonalLoop=1;jettySize=auto;html=1;exitX=0;exitY=1;exitDx=0;exitDy=0;entryX=0.75;entryY=0;entryDx=0;entryDy=0;" edge="1" parent="1" source="XudQNCLkwwrWhG9qk1SB-6" target="XudQNCLkwwrWhG9qk1SB-4">
          <mxGeometry relative="1" as="geometry">
            <Array as="points">
              <mxPoint x="193" y="128" />
              <mxPoint x="-1" y="128" />
            </Array>
          </mxGeometry>
        </mxCell>
        <mxCell id="XudQNCLkwwrWhG9qk1SB-6" value="Shipper" style="ellipse;whiteSpace=wrap;html=1;" vertex="1" parent="1">
          <mxGeometry x="175" y="44" width="120" height="80" as="geometry" />
        </mxCell>
        <mxCell id="XudQNCLkwwrWhG9qk1SB-9" value="1. Order" style="text;html=1;align=center;verticalAlign=middle;resizable=0;points=[];autosize=1;strokeColor=none;fillColor=none;" vertex="1" parent="1">
          <mxGeometry x="-51" y="93" width="62" height="26" as="geometry" />
        </mxCell>
        <mxCell id="XudQNCLkwwrWhG9qk1SB-18" value="8. Assigned order to shipper" style="text;html=1;align=center;verticalAlign=middle;resizable=0;points=[];autosize=1;strokeColor=none;fillColor=none;" vertex="1" parent="1">
          <mxGeometry x="61" y="155" width="167" height="26" as="geometry" />
        </mxCell>
        <mxCell id="XudQNCLkwwrWhG9qk1SB-20" value="3. Confirm" style="text;html=1;align=center;verticalAlign=middle;resizable=0;points=[];autosize=1;strokeColor=none;fillColor=none;" vertex="1" parent="1">
          <mxGeometry x="-264" y="234" width="73" height="26" as="geometry" />
        </mxCell>
        <mxCell id="XudQNCLkwwrWhG9qk1SB-23" value="Database" style="shape=cylinder3;whiteSpace=wrap;html=1;boundedLbl=1;backgroundOutline=1;size=15;" vertex="1" parent="1">
          <mxGeometry x="-297.5" y="354" width="60" height="80" as="geometry" />
        </mxCell>
        <mxCell id="XudQNCLkwwrWhG9qk1SB-24" value="4. Save order" style="text;html=1;align=center;verticalAlign=middle;resizable=0;points=[];autosize=1;strokeColor=none;fillColor=none;" vertex="1" parent="1">
          <mxGeometry x="-218" y="381" width="90" height="26" as="geometry" />
        </mxCell>
        <mxCell id="XudQNCLkwwrWhG9qk1SB-11" value="2 .Send Request" style="text;html=1;align=center;verticalAlign=middle;resizable=0;points=[];autosize=1;strokeColor=none;fillColor=none;" vertex="1" parent="1">
          <mxGeometry x="-321" y="160" width="107" height="26" as="geometry" />
        </mxCell>
        <mxCell id="XudQNCLkwwrWhG9qk1SB-27" value="Payment Service" style="ellipse;whiteSpace=wrap;html=1;" vertex="1" parent="1">
          <mxGeometry x="22" y="367" width="120" height="71" as="geometry" />
        </mxCell>
        <mxCell id="XudQNCLkwwrWhG9qk1SB-29" style="edgeStyle=orthogonalEdgeStyle;rounded=0;orthogonalLoop=1;jettySize=auto;html=1;exitX=0.5;exitY=0;exitDx=0;exitDy=0;entryX=1;entryY=0.75;entryDx=0;entryDy=0;" edge="1" parent="1" source="XudQNCLkwwrWhG9qk1SB-27" target="XudQNCLkwwrWhG9qk1SB-4">
          <mxGeometry relative="1" as="geometry" />
        </mxCell>
        <mxCell id="XudQNCLkwwrWhG9qk1SB-30" value="6. Payment Result" style="text;html=1;align=center;verticalAlign=middle;resizable=0;points=[];autosize=1;strokeColor=none;fillColor=none;" vertex="1" parent="1">
          <mxGeometry x="91" y="268" width="116" height="26" as="geometry" />
        </mxCell>
        <mxCell id="XudQNCLkwwrWhG9qk1SB-31" value="5. Request Payment" style="text;html=1;align=center;verticalAlign=middle;resizable=0;points=[];autosize=1;strokeColor=none;fillColor=none;" vertex="1" parent="1">
          <mxGeometry x="-58" y="337" width="127" height="26" as="geometry" />
        </mxCell>
        <mxCell id="XudQNCLkwwrWhG9qk1SB-33" value="9. Update Delivery Status" style="text;html=1;align=center;verticalAlign=middle;resizable=0;points=[];autosize=1;strokeColor=none;fillColor=none;" vertex="1" parent="1">
          <mxGeometry x="11" y="108" width="154" height="26" as="geometry" />
        </mxCell>
        <mxCell id="XudQNCLkwwrWhG9qk1SB-37" value="10. Save Delivery Status" style="text;html=1;align=center;verticalAlign=middle;resizable=0;points=[];autosize=1;strokeColor=none;fillColor=none;" vertex="1" parent="1">
          <mxGeometry x="-268" y="294" width="149" height="26" as="geometry" />
        </mxCell>
        <mxCell id="XudQNCLkwwrWhG9qk1SB-39" value="12. Give notification" style="text;html=1;align=center;verticalAlign=middle;resizable=0;points=[];autosize=1;strokeColor=none;fillColor=none;" vertex="1" parent="1">
          <mxGeometry x="-255" y="67" width="123" height="26" as="geometry" />
        </mxCell>
      </root>
    </mxGraphModel>
  </diagram>
</mxfile>
